HIERARCHY
ROOT Hips
{
    OFFSET   0.000000   0.000000   0.000000
    CHANNELS 6 Xposition Yposition Zposition Zrotation Xrotation Yrotation
    JOINT Chest
    {
        OFFSET   0.000000   8.007240   0.000000
        CHANNELS 3 Zrotation Xrotation Yrotation
        JOINT Chest2
        {
            OFFSET   0.000000  22.077100   0.000000
            CHANNELS 3 Zrotation Xrotation Yrotation
            JOINT Neck
            {
                OFFSET   0.000000  23.254800   0.000000
                CHANNELS 3 Zrotation Xrotation Yrotation
                JOINT Head
                {
                    OFFSET   0.000000  14.370000   1.956600
                    CHANNELS 3 Zrotation Xrotation Yrotation
                    End Site
                    {
                        OFFSET   0.000000  19.566000   0.000000
                    }
                }
            }
            JOINT LeftCollar
            {
                OFFSET   3.911900  19.017000  -0.467064
                CHANNELS 3 Zrotation Xrotation Yrotation
                JOINT LeftShoulder
                {
                    OFFSET  10.383700   0.000000   0.000000
                    CHANNELS 3 Zrotation Xrotation Yrotation
                    JOINT LeftElbow
                    {
                        OFFSET  26.662100   0.001476   0.000517
                        CHANNELS 3 Zrotation Xrotation Yrotation
                        JOINT LeftWrist
                        {
                            OFFSET  28.869000  -0.000025  -0.000106
                            CHANNELS 3 Zrotation Xrotation Yrotation
                            JOINT LeftFinger0
                            {
                                OFFSET   2.044660  -2.323460   3.252850
                                CHANNELS 3 Zrotation Xrotation Yrotation
                                JOINT LeftFinger01
                                {
                                    OFFSET   3.088130   0.000000   0.000000
                                    CHANNELS 3 Zrotation Xrotation Yrotation
                                    JOINT LeftFinger02
                                    {
                                        OFFSET   2.639460   0.000000   0.000000
                                        CHANNELS 3 Zrotation Xrotation Yrotation
                                        End Site
                                        {
                                            OFFSET   2.582190   0.000000   0.000000
                                        }
                                    }
                                }
                            }
                            JOINT LeftFinger1
                            {
                                OFFSET   8.364480   0.000000   3.252850
                                CHANNELS 3 Zrotation Xrotation Yrotation
                                JOINT LeftFinger11
                                {
                                    OFFSET   4.646930   0.000000   0.000000
                                    CHANNELS 3 Zrotation Xrotation Yrotation
                                    JOINT LeftFinger12
                                    {
                                        OFFSET   2.323460   0.000000   0.000000
                                        CHANNELS 3 Zrotation Xrotation Yrotation
                                        End Site
                                        {
                                            OFFSET   2.273050   0.000000   0.000000
                                        }
                                    }
                                }
                            }
                            JOINT LeftFinger2
                            {
                                OFFSET   8.364490   0.000015   1.078090
                                CHANNELS 3 Zrotation Xrotation Yrotation
                                JOINT LeftFinger21
                                {
                                    OFFSET   5.111620   0.000000   0.000000
                                    CHANNELS 3 Zrotation Xrotation Yrotation
                                    JOINT LeftFinger22
                                    {
                                        OFFSET   2.788160   0.000016   0.000000
                                        CHANNELS 3 Zrotation Xrotation Yrotation
                                        End Site
                                        {
                                            OFFSET   2.727660   0.000000   0.000000
                                        }
                                    }
                                }
                            }
                            JOINT LeftFinger3
                            {
                                OFFSET   7.899780   0.000017  -1.078090
                                CHANNELS 3 Zrotation Xrotation Yrotation
                                JOINT LeftFinger31
                                {
                                    OFFSET   4.646930   0.000000   0.000000
                                    CHANNELS 3 Zrotation Xrotation Yrotation
                                    JOINT LeftFinger32
                                    {
                                        OFFSET   2.323470   0.000000   0.000000
                                        CHANNELS 3 Zrotation Xrotation Yrotation
                                        End Site
                                        {
                                            OFFSET   2.273050   0.000000   0.000000
                                        }
                                    }
                                }
                            }
                            JOINT LeftFinger4
                            {
                                OFFSET   7.435090   0.000000  -3.252850
                                CHANNELS 3 Zrotation Xrotation Yrotation
                                JOINT LeftFinger41
                                {
                                    OFFSET   3.717550   0.000000   0.000000
                                    CHANNELS 3 Zrotation Xrotation Yrotation
                                    JOINT LeftFinger42
                                    {
                                        OFFSET   1.858770   0.000000   0.000000
                                        CHANNELS 3 Zrotation Xrotation Yrotation
                                        End Site
                                        {
                                            OFFSET   1.818440   0.000000   0.000000
                                        }
                                    }
                                }
                            }
                        }
                    }
                }
            }
            JOINT RightCollar
            {
                OFFSET  -3.911900  19.017000  -0.467063
                CHANNELS 3 Zrotation Xrotation Yrotation
                JOINT RightShoulder
                {
                    OFFSET -10.383700   0.000019   0.000000
                    CHANNELS 3 Zrotation Xrotation Yrotation
                    JOINT RightElbow
                    {
                        OFFSET -26.662100   0.001175   0.000102
                        CHANNELS 3 Zrotation Xrotation Yrotation
                        JOINT RightWrist
                        {
                            OFFSET -28.869000   0.000016  -0.000079
                            CHANNELS 3 Zrotation Xrotation Yrotation
                            JOINT RightFinger0
                            {
                                OFFSET  -2.044660  -2.323490   3.252850
                                CHANNELS 3 Zrotation Xrotation Yrotation
                                JOINT RightFinger01
                                {
                                    OFFSET  -3.088140   0.000000   0.000000
                                    CHANNELS 3 Zrotation Xrotation Yrotation
                                    JOINT RightFinger02
                                    {
                                        OFFSET  -2.639460   0.000000   0.000000
                                        CHANNELS 3 Zrotation Xrotation Yrotation
                                        End Site
                                        {
                                            OFFSET  -2.582190   0.000000   0.000000
                                        }
                                    }
                                }
                            }
                            JOINT RightFinger1
                            {
                                OFFSET  -8.364480   0.000000   3.252850
                                CHANNELS 3 Zrotation Xrotation Yrotation
                                JOINT RightFinger11
                                {
                                    OFFSET  -4.646930   0.000000   0.000000
                                    CHANNELS 3 Zrotation Xrotation Yrotation
                                    JOINT RightFinger12
                                    {
                                        OFFSET  -2.323470   0.000000   0.000000
                                        CHANNELS 3 Zrotation Xrotation Yrotation
                                        End Site
                                        {
                                            OFFSET  -2.273050   0.000000   0.000000
                                        }
                                    }
                                }
                            }
                            JOINT RightFinger2
                            {
                                OFFSET  -8.364480   0.000000   1.078090
                                CHANNELS 3 Zrotation Xrotation Yrotation
                                JOINT RightFinger21
                                {
                                    OFFSET  -5.111620   0.000000   0.000000
                                    CHANNELS 3 Zrotation Xrotation Yrotation
                                    JOINT RightFinger22
                                    {
                                        OFFSET  -2.788160   0.000000   0.000000
                                        CHANNELS 3 Zrotation Xrotation Yrotation
                                        End Site
                                        {
                                            OFFSET  -2.727660   0.000000   0.000000
                                        }
                                    }
                                }
                            }
                            JOINT RightFinger3
                            {
                                OFFSET  -7.899780   0.000000  -1.078090
                                CHANNELS 3 Zrotation Xrotation Yrotation
                                JOINT RightFinger31
                                {
                                    OFFSET  -4.646930   0.000000   0.000000
                                    CHANNELS 3 Zrotation Xrotation Yrotation
                                    JOINT RightFinger32
                                    {
                                        OFFSET  -2.323470   0.000000   0.000000
                                        CHANNELS 3 Zrotation Xrotation Yrotation
                                        End Site
                                        {
                                            OFFSET  -2.273050   0.000000   0.000000
                                        }
                                    }
                                }
                            }
                            JOINT RightFinger4
                            {
                                OFFSET  -7.435090   0.000000  -3.252850
                                CHANNELS 3 Zrotation Xrotation Yrotation
                                JOINT RightFinger41
                                {
                                    OFFSET  -3.717550   0.000000   0.000000
                                    CHANNELS 3 Zrotation Xrotation Yrotation
                                    JOINT RightFinger42
                                    {
                                        OFFSET  -1.858770   0.000000   0.000000
                                        CHANNELS 3 Zrotation Xrotation Yrotation
                                        End Site
                                        {
                                            OFFSET  -1.818440   0.000000   0.000000
                                        }
                                    }
                                }
                            }
                        }
                    }
                }
            }
        }
    }
    JOINT LeftHip
    {
        OFFSET   9.783040   0.000000   0.000000
        CHANNELS 3 Zrotation Xrotation Yrotation
        JOINT LeftKnee
        {
            OFFSET   0.000032 -41.789100  -0.002222
            CHANNELS 3 Zrotation Xrotation Yrotation
            JOINT LeftAnkle
            {
                OFFSET   0.000087 -41.133200  -0.000135
                CHANNELS 3 Zrotation Xrotation Yrotation
                JOINT LeftToe
                {
                    OFFSET   0.000000  -6.358960  14.674500
                    CHANNELS 3 Zrotation Xrotation Yrotation
                    End Site
                    {
                        OFFSET   0.000000   0.000000   3.913200
                    }
                }
            }
        }
    }
    JOINT RightHip
    {
        OFFSET  -9.783040   0.000000   0.000000
        CHANNELS 3 Zrotation Xrotation Yrotation
        JOINT RightKnee
        {
            OFFSET   0.000047 -41.789100  -0.000896
            CHANNELS 3 Zrotation Xrotation Yrotation
            JOINT RightAnkle
            {
                OFFSET  -0.000117 -41.133300  -0.000248
                CHANNELS 3 Zrotation Xrotation Yrotation
                JOINT RightToe
                {
                    OFFSET   0.000000  -6.358970  14.674500
                    CHANNELS 3 Zrotation Xrotation Yrotation
                    End Site
                    {
                        OFFSET   0.000000   0.000000   3.913200
                    }
                }
            }
        }
    }
}
MOTION
Frames: 6
Frame Time:   0.016667
  0.553081  89.449200   4.408630  -3.273540  -3.866570  -3.237890   1.407350   3.966730  -0.690417   2.872950   7.914900  -1.483880   0.888003  -0.136456  -0.002259   1.454440  -0.276710   5.948710  -6.110450   2.821050   0.336640 -72.162700  13.246900  -9.239170  -2.954830  -4.318190 -12.011900   9.787040  -6.533230  14.148800  39.706300  27.226200 -61.663800 -24.752300   0.006404   0.003039  -7.376170  -0.001702   0.001658 -35.568400   7.764230 -10.698000 -29.682100   0.000371   0.008940 -20.789700  -0.002440   0.005043 -28.668200   3.757240  -6.834300 -43.338900   0.003795  -0.004353 -28.863700   0.006527  -0.006412 -29.617100   1.229080  -2.155580 -44.460000  -0.000337   0.001216 -29.610400   0.002660  -0.006054 -40.663500  -1.270930   1.479050 -61.019900  -0.001640  -0.016792 -40.639300   0.000100  -0.004082   7.537490  -0.643872  10.434800  70.693000   4.559570   0.629407  -0.867235  -4.161400  13.285400 -12.233900  -5.799570   5.390440 -38.374900  24.115400  64.481200  17.979700   0.000894  -0.006367   3.989850   0.003001   0.001067  38.939600  11.392400  13.741700  32.986200   0.002272   0.003895  23.209700   0.013539   0.004373  30.008200   4.979410   8.537900  45.571300  -0.000536   0.003683  30.350500   0.007740   0.002970  29.935400  -0.833712  -1.449300  44.919800  -0.003225   0.001491  29.916600   0.000738  -0.000573  44.709000  -2.572470  -2.598020  67.152300  -0.002613  -0.001656  44.723500  -0.001298   0.003839   3.649220   7.830090   2.900350   0.775392   0.812562   9.626130  -3.002410  -4.242110   1.754860  -0.000000   0.000000  -0.000000   1.602480   1.988440  -4.232750   1.575290   4.443440  -4.616550  -4.530260  -2.115340   3.695560   0.000000   0.000000   0.000000
  0.548033  89.450200   4.408580  -3.278690  -3.893690  -3.237990   1.407210   3.994460  -0.694978   2.873210   7.970260  -1.493030   0.888002  -0.167253  -0.002258   1.459170  -0.339028   5.955050  -6.113390   2.799580   0.334509 -72.148700  13.304900  -9.259300  -2.962340  -4.342720 -12.000400   9.767430  -6.522220  14.140700  39.720400  27.294500 -61.728700 -24.768500   0.006404   0.003024  -7.384270  -0.001695   0.001645 -35.562900   7.764160 -10.697900 -29.681600   0.000371   0.008944 -20.789600  -0.002425   0.005046 -28.665100   3.747410  -6.817480 -43.332500   0.003796  -0.004354 -28.859400   0.006532  -0.006417 -29.607900   1.228330  -2.155830 -44.446300  -0.000337   0.001230 -29.601300   0.002669  -0.006050 -40.650900  -1.267200   1.475350 -61.000800  -0.001638  -0.016803 -40.626600   0.000071  -0.004073   7.564960  -0.709752  10.499700  70.694800   4.609610   0.563449  -0.900848  -4.136100  13.370600 -12.258600  -5.376860   5.429570 -38.296000  24.414000  64.941500  17.957700   0.000981  -0.006432   3.978870   0.003100   0.001062  38.834100  11.390000  13.786600  32.903400   0.002246   0.003850  23.134600   0.013555   0.004347  29.940400   4.979080   8.562820  45.471100  -0.000525   0.003645  30.283700   0.007738   0.002943  29.915400  -0.770107  -1.341150  44.887700  -0.003219   0.001498  29.895200   0.000752  -0.000566  44.660700  -2.555620  -2.587020  67.079200  -0.002604  -0.001641  44.674800  -0.001291   0.003836   3.655720   7.850910   2.900500   0.775419   0.825921   9.625950  -3.003610  -4.248420   1.754820  -0.000000   0.000000   0.000000   1.603120   2.020720  -4.236340   1.577450   4.440840  -4.611180  -4.530350  -2.115350   3.695550  -0.000000   0.000000   0.000000
  0.540883  89.452100   4.408530  -3.288270  -3.944920  -3.238190   1.407350   4.045130  -0.699559   2.874990   8.071460  -1.504430   0.888000  -0.224566  -0.002250   1.458910  -0.455049   5.961450  -6.118660   2.766960   0.319631 -72.125600  13.393800  -9.297320  -2.973560  -4.369740 -11.982300   9.740210  -6.509670  14.128400  39.734600  27.362600 -61.793800 -24.791600   0.006403   0.003010  -7.395830  -0.001681   0.001612 -35.557400   7.764060 -10.697800 -29.681200   0.000367   0.008954 -20.789600  -0.002389   0.005056 -28.659200   3.733580  -6.794210 -43.321300   0.003800  -0.004355 -28.851900   0.006542  -0.006431 -29.593400   1.226520  -2.156080 -44.424700  -0.000337   0.001264 -29.586900   0.002693  -0.006036 -40.631100  -1.261240   1.469450 -60.970900  -0.001637  -0.016831 -40.606700   0.000000  -0.004048   7.608010  -0.810600  10.589500  70.685100   4.659700   0.422756  -0.943922  -4.002870  13.677400 -12.243800  -4.639700   5.501310 -38.157900  24.829000  65.637600  17.804100   0.001127  -0.006535   3.902030   0.003199   0.001048  38.728600  11.387600  13.831500  32.820600   0.002183   0.003778  23.059500   0.013587   0.004301  29.809300   4.978450   8.611390  45.277200  -0.000497   0.003581  30.154600   0.007735   0.002899  29.824400  -0.675582  -1.182300  44.748400  -0.003204   0.001520  29.802500   0.000785  -0.000550  44.496900  -2.499460  -2.545880  66.830400  -0.002582  -0.001604  44.509100  -0.001273   0.003827   3.666010   7.896390   2.900790   0.775446   0.839281   9.625780  -3.004840  -4.254730   1.754450   0.000000   0.000000  -0.000000   1.603220   2.079560  -4.252520   1.582840   4.438310  -4.594970  -4.530500  -2.115390   3.695540   0.000000   0.000000   0.000000
  0.537525  89.454500   4.411440  -3.298060  -3.994880  -3.238520   1.409600   4.093860  -0.699584   2.880660   8.168830  -1.507220   0.881710  -0.282492  -0.002228   1.446040  -0.572419   5.958440  -6.122560   2.743850   0.276858 -72.108700  13.443800  -9.335120  -2.981320  -4.371530 -11.969800   9.731040  -6.508290  14.121600  39.729000  27.356800 -61.789900 -24.803200   0.006396   0.003018  -7.401610  -0.001666   0.001563 -35.557700   7.764020 -10.697600 -29.684300   0.000355   0.008965 -20.789500  -0.002335   0.005077 -28.652900   3.727370  -6.785270 -43.310800   0.003807  -0.004358 -28.844900   0.006558  -0.006452 -29.583000   1.223630  -2.154610 -44.408900  -0.000336   0.001316 -29.576400   0.002730  -0.006012 -40.617100  -1.256670   1.464920 -60.949800  -0.001638  -0.016872 -40.592600  -0.000136  -0.004008   7.640240  -0.874995  10.624100  70.603100   4.612050   0.250106  -0.982087  -3.683040  14.223700 -12.100500  -3.896240   5.555130 -37.920000  24.955000  66.008800  17.321500   0.001279  -0.006630   3.660700   0.003175   0.001018  38.743300  11.387900  13.825500  32.832100   0.002086   0.003713  23.069700   0.013625   0.004248  29.623500   4.978800   8.681120  45.002600  -0.000458   0.003517  29.971800   0.007730   0.002852  29.602000  -0.626680  -1.105900  44.412800  -0.003182   0.001562  29.579000   0.000835  -0.000527  44.157100  -2.383920  -2.456120  66.313300  -0.002549  -0.001546  44.164700  -0.001247   0.003814   3.673460   7.954090   2.899560   0.776044   0.830186   9.629810  -3.004630  -4.251500   1.750730   0.000000   0.000000  -0.000000   1.600650   2.132150  -4.290180   1.591920   4.441160  -4.563780  -4.530480  -2.116720   3.699710  -0.000000   0.000000   0.000000
  0.536268  89.456800   4.417030  -3.308910  -4.059510  -3.239030   1.417230   4.150300  -0.699516   2.896710   8.281620  -1.508000   0.860690  -0.348590  -0.002199   1.414140  -0.706375   5.936750  -6.127910   2.731890   0.207061 -72.089600  13.493500  -9.382220  -2.992190  -4.373270 -11.960000   9.722820  -6.507870  14.113900  39.724900  27.348300 -61.789400 -24.807800   0.006391   0.003026  -7.403910  -0.001645   0.001506 -35.559500   7.764010 -10.697600 -29.690100   0.000341   0.008980 -20.789500  -0.002267   0.005104 -28.645900   3.725170  -6.782770 -43.300100   0.003816  -0.004362 -28.837900   0.006578  -0.006478 -29.574300   1.220630  -2.151120 -44.395800  -0.000335   0.001380 -29.567600   0.002778  -0.005981 -40.606100  -1.253090   1.461380 -60.933300  -0.001639  -0.016923 -40.581500  -0.000230  -0.003957   7.660680  -0.923890  10.633900  70.467800   4.437420   0.031672  -1.025100  -3.301250  15.058400 -11.829500  -3.283820   5.650310 -37.850400  25.118300  66.318100  16.533300   0.001371  -0.006685   3.266640   0.003012   0.000998  38.846200  11.390400  13.783400  32.912800   0.001982   0.003675  23.141100   0.013661   0.004216  29.501100   4.979460   8.727180  44.821800  -0.000407   0.003478  29.851300   0.007727   0.002823  29.369500  -0.586440  -1.043660  44.062300  -0.003152   0.001613  29.345500   0.000896  -0.000498  43.784600  -2.257900  -2.356980  65.746800  -0.002507  -0.001476  43.787400  -0.001217   0.003795   3.680800   8.027520   2.892420   0.776534   0.821073   9.641530  -3.004660  -4.248270   1.743670   0.000000   0.000000  -0.000000   1.598260   2.200940  -4.333550   1.601130   4.444020  -4.529880  -4.530110  -2.120180   3.707620   0.000000   0.000000  -0.000000
  0.536799  89.458200   4.423590  -3.321750  -4.150670  -3.239580   1.432530   4.218260  -0.693302   2.928310   8.417460  -1.498870   0.823783  -0.423272  -0.002164   1.353690  -0.857709   5.880330  -6.139060   2.733590   0.108380 -72.066100  13.561100  -9.445160  -3.010540  -4.390450 -11.954300   9.708100  -6.507390  14.102300  39.731800  27.345300 -61.808500 -24.796600   0.006402   0.002997  -7.398290  -0.001618   0.001448 -35.567900   7.764290 -10.697600 -29.697500   0.000330   0.009000 -20.790500  -0.002191   0.005134 -28.640100   3.728110  -6.790060 -43.294000   0.003824  -0.004366 -28.833900   0.006601  -0.006509 -29.570700   1.218600  -2.144480 -44.390300  -0.000334   0.001453 -29.563900   0.002833  -0.005944 -40.603100  -1.252270   1.460560 -60.928700  -0.001640  -0.016982 -40.578400  -0.000219  -0.003901   7.661610  -0.955054  10.586500  70.313400   4.118080  -0.238351  -1.195960  -2.918410  16.249500 -11.382900  -3.100630   5.825820 -38.230900  25.592500  66.556200  15.439800   0.001261  -0.006645   2.719910   0.001970   0.000998  39.257100  11.407500  13.610200  33.236500   0.001888   0.003702  23.434700   0.013678   0.004235  29.574900   4.979090   8.699560  44.930900  -0.000344   0.003504  29.924000   0.007728   0.002852  29.232400  -0.550270  -0.983717  43.855800  -0.003114   0.001662  29.208000   0.000966  -0.000464  43.530300  -2.172960  -2.288620  65.360300  -0.002460  -0.001399  43.530000  -0.001184   0.003770   3.690550   8.117510   2.875590   0.778032   0.835088   9.662400  -3.007190  -4.257220   1.734860  -0.000000   0.000000   0.000000   1.599390   2.304450  -4.369240   1.607100   4.436760  -4.505690  -4.528730  -2.126020   3.717110   0.000000   0.000000   0.000000
